GoodFellas 1990 Special Edition BluRay 1080p ac3 x264-LoNeWoLf


Encoded by Tequila-Bob a.k.a. bobnjeff a.k.a.LoNeWoLf

Source - NTSC BluRay Disc.

Movie has been tested and is DXVA Compliant

 
http://www.imdb.com/title/tt0099685/

Release Date:19 September 1990 (USA)

Rated R for Strong violence and drug use, pervasive strong language, and some sexual content 

Goodfellas (1990) 
  146 min  -  Crime , Drama , Thriller   -  19 September 1990 (USA) 
  8.8/10 X  Users: 8.8/10 (240,017 votes) 762 reviews | Critics: 128 reviews 
  Henry Hill and his friends work their way up through the mob hierarchy. 

Director: Martin Scorsese
Writers: Nicholas Pileggi (book), Nicholas Pileggi (screenplay), 
Stars:Robert De Niro, Ray Liotta , Joe Pesci 

Storyline
Henry Hill is a small time gangster, who takes part in a robbery with Jimmy Conway and Tommy De Vito, two other gangsters who have set their sights a bit higher. His two partners kill off everyone else involved in the robbery, and slowly start to climb up through the hierarchy of the Mob. Henry, however, is badly affected by his partners success, but will he stoop low enough to bring about the downfall of Jimmy and Tommy? 

Cast
Cast overview, first billed only: 
  Robert De Niro  ...  James 'Jimmy' Conway  
  Ray Liotta  ...  Henry Hill  
  Joe Pesci  ...  Tommy DeVito  
  Lorraine Bracco  ...  Karen Hill  
  Paul Sorvino  ...  Paul Cicero  
  Frank Sivero  ...  Frankie Carbone  
  Tony Darrow  ...  Sonny Bunz  
  Mike Starr  ...  Frenchy  
  Frank Vincent  ...  Billy Batts  
  Chuck Low  ...  Morris 'Morrie' Kessler  
  Frank DiLeo  ...  Tuddy Cicero  
  Henny Youngman  ...  Himself  
  Gina Mastrogiacomo  ...  Janice Rossi  
  Catherine Scorsese  ...  Tommy's Mother  
  Charles Scorsese  ...  Vinnie  

[img]http://torrent-stats.info/8e7a/9d145712.png[/img]

See the full size 1920x1072 PNG files at the link below
 
http://s1015.photobucket.com/albums/af279/tequila-bob/GoodFellas%201990%20Special%20Edition/

Format : Matroska 
File size : 10.3 GiB 
Duration : 2h 25mn 
Overall bit rate : 10.1 Mbps 
Encoded date : UTC 2010-12-28 11:21:59 
Writing application : mkvmerge v4.4.0 ('Die Wiederkehr') built on Oct 31 2010 21:52:48 
Writing library : libebml v1.0.0 + libmatroska v1.0.0 

Video 
ID : 1 
Format : AVC 
Format/Info : Advanced Video Codec 
Format profile : High@L4.1 
Format settings, CABAC : Yes 
Format settings, ReFrames : 4 frames 
Muxing mode : Container profile=Unknown@4.1 
Codec ID : V_MPEG4/ISO/AVC 
Duration : 2h 25mn 
Bit rate : 9 399 Kbps 
Width : 1 920 pixels 
Height : 1 072 pixels 
Display aspect ratio : 16:9 
Frame rate : 23.976 fps 
Color space : YUV 
Chroma subsampling : 4:2:0 
Bit depth : 8 bits 
Scan type : Progressive 
Bits/(Pixel*Frame) : 0.190 
Stream size : 9.44 GiB (92%) 
Writing library : x264 core 98 r1649 c54c47d 
Encoding settings : cabac=1 / ref=5 / deblock=1:-3:-3 / analyse=0x3:0x113 / me=umh / subme=10 / psy=1 / psy_rd=1.00:0.15 / mixed_ref=1 / me_range=32 / chroma_me=1 / trellis=2 / 8x8dct=1 / cqm=0 / deadzone=21,11 / fast_pskip=0 / chroma_qp_offset=-3 / threads=6 / sliced_threads=0 / nr=0 / decimate=1 / interlaced=0 / constrained_intra=0 / bframes=3 / b_pyramid=1 / b_adapt=2 / b_bias=0 / direct=1 / weightb=1 / weightp=2 / keyint=250 / keyint_min=25 / scenecut=40 / intra_refresh=0 / rc_lookahead=60 / rc=2pass / mbtree=1 / bitrate=9399 / ratetol=1.0 / qcomp=0.60 / qpmin=10 / qpmax=51 / qpstep=4 / cplxblur=20.0 / qblur=0.5 / vbv_maxrate=50000 / vbv_bufsize=50000 / ip_ratio=1.40 / aq=1:1.50 / nal_hrd=none 
Language : English 

Audio 
ID : 2 
Format : AC-3 
Format/Info : Audio Coding 3 
Mode extension : CM (complete main) 
Codec ID : A_AC3 
Duration : 2h 25mn 
Bit rate mode : Constant 
Bit rate : 640 Kbps 
Channel(s) : 6 channels 
Channel positions : Front: L C R, Side: L R, LFE 
Sampling rate : 48.0 KHz 
Bit depth : 16 bits 
Stream size : 666 MiB (6%) 
Title : 3/2+1 
Language : English 

Text 
ID : 3 
Format : PGS 
Codec ID : S_HDMV/PGS 
Codec ID/Info : The same subtitle format used on BDs/HD-DVDs 
Language : English , French , Spanish 



Menu & 46 Chapters

See the full size 1920x1072 PNG files at the link below
 
http://s1015.photobucket.com/albums/af279/tequila-bob/GoodFellas%201990%20Special%20Edition/

